M48
;DRILL file {KiCad 5.0.2+dfsg1-1} date Mon 28 Jun 2021 10:58:22 AM EDT
;FORMAT={-:-/ absolute / metric / decimal}
FMAT,2
METRIC,TZ
T1C0.800
T2C6.400
%
G90
G05
T1
X146.05Y-81.28
X146.05Y-83.82
X146.05Y-86.36
X146.05Y-88.9
X146.05Y-91.44
X146.05Y-93.98
X146.05Y-96.52
X146.05Y-99.06
X146.05Y-101.6
X146.05Y-104.14
X153.67Y-81.28
X153.67Y-83.82
X153.67Y-86.36
X153.67Y-88.9
X153.67Y-91.44
X153.67Y-93.98
X153.67Y-96.52
X153.67Y-99.06
X153.67Y-101.6
X153.67Y-104.14
T2
X149.86Y-72.39
T0
M30
