%TF.GenerationSoftware,KiCad,Pcbnew,5.0.2+dfsg1-1*%
%TF.CreationDate,2021-06-28T10:58:25-04:00*%
%TF.ProjectId,dip-20-keychain,6469702d-3230-42d6-9b65-79636861696e,1*%
%TF.SameCoordinates,Original*%
%TF.FileFunction,Legend,Bot*%
%TF.FilePolarity,Positive*%
%FSLAX46Y46*%
G04 Gerber Fmt 4.6, Leading zero omitted, Abs format (unit mm)*
G04 Created by KiCad (PCBNEW 5.0.2+dfsg1-1) date Mon 28 Jun 2021 10:58:25 AM EDT*
%MOMM*%
%LPD*%
G01*
G04 APERTURE LIST*
%ADD10C,0.300000*%
G04 APERTURE END LIST*
D10*
X149263571Y-83281428D02*
X147763571Y-83281428D01*
X147763571Y-83638571D01*
X147835000Y-83852857D01*
X147977857Y-83995714D01*
X148120714Y-84067142D01*
X148406428Y-84138571D01*
X148620714Y-84138571D01*
X148906428Y-84067142D01*
X149049285Y-83995714D01*
X149192142Y-83852857D01*
X149263571Y-83638571D01*
X149263571Y-83281428D01*
X149263571Y-84781428D02*
X147763571Y-84781428D01*
X149263571Y-85495714D02*
X147763571Y-85495714D01*
X147763571Y-86067142D01*
X147835000Y-86210000D01*
X147906428Y-86281428D01*
X148049285Y-86352857D01*
X148263571Y-86352857D01*
X148406428Y-86281428D01*
X148477857Y-86210000D01*
X148549285Y-86067142D01*
X148549285Y-85495714D01*
X148692142Y-86995714D02*
X148692142Y-88138571D01*
X147906428Y-88781428D02*
X147835000Y-88852857D01*
X147763571Y-88995714D01*
X147763571Y-89352857D01*
X147835000Y-89495714D01*
X147906428Y-89567142D01*
X148049285Y-89638571D01*
X148192142Y-89638571D01*
X148406428Y-89567142D01*
X149263571Y-88710000D01*
X149263571Y-89638571D01*
X147763571Y-90567142D02*
X147763571Y-90710000D01*
X147835000Y-90852857D01*
X147906428Y-90924285D01*
X148049285Y-90995714D01*
X148335000Y-91067142D01*
X148692142Y-91067142D01*
X148977857Y-90995714D01*
X149120714Y-90924285D01*
X149192142Y-90852857D01*
X149263571Y-90710000D01*
X149263571Y-90567142D01*
X149192142Y-90424285D01*
X149120714Y-90352857D01*
X148977857Y-90281428D01*
X148692142Y-90210000D01*
X148335000Y-90210000D01*
X148049285Y-90281428D01*
X147906428Y-90352857D01*
X147835000Y-90424285D01*
X147763571Y-90567142D01*
X149263571Y-92852857D02*
X147763571Y-92852857D01*
X149263571Y-93710000D02*
X148406428Y-93067142D01*
X147763571Y-93710000D02*
X148620714Y-92852857D01*
X149192142Y-94924285D02*
X149263571Y-94781428D01*
X149263571Y-94495714D01*
X149192142Y-94352857D01*
X149049285Y-94281428D01*
X148477857Y-94281428D01*
X148335000Y-94352857D01*
X148263571Y-94495714D01*
X148263571Y-94781428D01*
X148335000Y-94924285D01*
X148477857Y-94995714D01*
X148620714Y-94995714D01*
X148763571Y-94281428D01*
X148263571Y-95495714D02*
X149263571Y-95852857D01*
X148263571Y-96210000D02*
X149263571Y-95852857D01*
X149620714Y-95710000D01*
X149692142Y-95638571D01*
X149763571Y-95495714D01*
X149192142Y-97424285D02*
X149263571Y-97281428D01*
X149263571Y-96995714D01*
X149192142Y-96852857D01*
X149120714Y-96781428D01*
X148977857Y-96710000D01*
X148549285Y-96710000D01*
X148406428Y-96781428D01*
X148335000Y-96852857D01*
X148263571Y-96995714D01*
X148263571Y-97281428D01*
X148335000Y-97424285D01*
X149263571Y-98067142D02*
X147763571Y-98067142D01*
X149263571Y-98710000D02*
X148477857Y-98710000D01*
X148335000Y-98638571D01*
X148263571Y-98495714D01*
X148263571Y-98281428D01*
X148335000Y-98138571D01*
X148406428Y-98067142D01*
X149263571Y-100067142D02*
X148477857Y-100067142D01*
X148335000Y-99995714D01*
X148263571Y-99852857D01*
X148263571Y-99567142D01*
X148335000Y-99424285D01*
X149192142Y-100067142D02*
X149263571Y-99924285D01*
X149263571Y-99567142D01*
X149192142Y-99424285D01*
X149049285Y-99352857D01*
X148906428Y-99352857D01*
X148763571Y-99424285D01*
X148692142Y-99567142D01*
X148692142Y-99924285D01*
X148620714Y-100067142D01*
X149263571Y-100781428D02*
X148263571Y-100781428D01*
X147763571Y-100781428D02*
X147835000Y-100710000D01*
X147906428Y-100781428D01*
X147835000Y-100852857D01*
X147763571Y-100781428D01*
X147906428Y-100781428D01*
X148263571Y-101495714D02*
X149263571Y-101495714D01*
X148406428Y-101495714D02*
X148335000Y-101567142D01*
X148263571Y-101710000D01*
X148263571Y-101924285D01*
X148335000Y-102067142D01*
X148477857Y-102138571D01*
X149263571Y-102138571D01*
X151813571Y-82781428D02*
X150313571Y-82781428D01*
X151385000Y-83281428D01*
X150313571Y-83781428D01*
X151813571Y-83781428D01*
X151670714Y-84495714D02*
X151742142Y-84567142D01*
X151813571Y-84495714D01*
X151742142Y-84424285D01*
X151670714Y-84495714D01*
X151813571Y-84495714D01*
X151385000Y-86281428D02*
X151385000Y-86995714D01*
X151813571Y-86138571D02*
X150313571Y-86638571D01*
X151813571Y-87138571D01*
X150813571Y-87638571D02*
X151813571Y-87638571D01*
X150956428Y-87638571D02*
X150885000Y-87710000D01*
X150813571Y-87852857D01*
X150813571Y-88067142D01*
X150885000Y-88210000D01*
X151027857Y-88281428D01*
X151813571Y-88281428D01*
X151813571Y-89638571D02*
X150313571Y-89638571D01*
X151742142Y-89638571D02*
X151813571Y-89495714D01*
X151813571Y-89210000D01*
X151742142Y-89067142D01*
X151670714Y-88995714D01*
X151527857Y-88924285D01*
X151099285Y-88924285D01*
X150956428Y-88995714D01*
X150885000Y-89067142D01*
X150813571Y-89210000D01*
X150813571Y-89495714D01*
X150885000Y-89638571D01*
X151742142Y-90924285D02*
X151813571Y-90781428D01*
X151813571Y-90495714D01*
X151742142Y-90352857D01*
X151599285Y-90281428D01*
X151027857Y-90281428D01*
X150885000Y-90352857D01*
X150813571Y-90495714D01*
X150813571Y-90781428D01*
X150885000Y-90924285D01*
X151027857Y-90995714D01*
X151170714Y-90995714D01*
X151313571Y-90281428D01*
X151813571Y-91638571D02*
X150813571Y-91638571D01*
X151099285Y-91638571D02*
X150956428Y-91710000D01*
X150885000Y-91781428D01*
X150813571Y-91924285D01*
X150813571Y-92067142D01*
X151742142Y-92495714D02*
X151813571Y-92638571D01*
X151813571Y-92924285D01*
X151742142Y-93067142D01*
X151599285Y-93138571D01*
X151527857Y-93138571D01*
X151385000Y-93067142D01*
X151313571Y-92924285D01*
X151313571Y-92710000D01*
X151242142Y-92567142D01*
X151099285Y-92495714D01*
X151027857Y-92495714D01*
X150885000Y-92567142D01*
X150813571Y-92710000D01*
X150813571Y-92924285D01*
X150885000Y-93067142D01*
X151813571Y-93995714D02*
X151742142Y-93852857D01*
X151670714Y-93781428D01*
X151527857Y-93710000D01*
X151099285Y-93710000D01*
X150956428Y-93781428D01*
X150885000Y-93852857D01*
X150813571Y-93995714D01*
X150813571Y-94210000D01*
X150885000Y-94352857D01*
X150956428Y-94424285D01*
X151099285Y-94495714D01*
X151527857Y-94495714D01*
X151670714Y-94424285D01*
X151742142Y-94352857D01*
X151813571Y-94210000D01*
X151813571Y-93995714D01*
X150813571Y-95138571D02*
X151813571Y-95138571D01*
X150956428Y-95138571D02*
X150885000Y-95210000D01*
X150813571Y-95352857D01*
X150813571Y-95567142D01*
X150885000Y-95710000D01*
X151027857Y-95781428D01*
X151813571Y-95781428D01*
X150456428Y-97567142D02*
X150385000Y-97638571D01*
X150313571Y-97781428D01*
X150313571Y-98138571D01*
X150385000Y-98281428D01*
X150456428Y-98352857D01*
X150599285Y-98424285D01*
X150742142Y-98424285D01*
X150956428Y-98352857D01*
X151813571Y-97495714D01*
X151813571Y-98424285D01*
X150313571Y-99352857D02*
X150313571Y-99495714D01*
X150385000Y-99638571D01*
X150456428Y-99710000D01*
X150599285Y-99781428D01*
X150885000Y-99852857D01*
X151242142Y-99852857D01*
X151527857Y-99781428D01*
X151670714Y-99710000D01*
X151742142Y-99638571D01*
X151813571Y-99495714D01*
X151813571Y-99352857D01*
X151742142Y-99210000D01*
X151670714Y-99138571D01*
X151527857Y-99067142D01*
X151242142Y-98995714D01*
X150885000Y-98995714D01*
X150599285Y-99067142D01*
X150456428Y-99138571D01*
X150385000Y-99210000D01*
X150313571Y-99352857D01*
X150456428Y-100424285D02*
X150385000Y-100495714D01*
X150313571Y-100638571D01*
X150313571Y-100995714D01*
X150385000Y-101138571D01*
X150456428Y-101210000D01*
X150599285Y-101281428D01*
X150742142Y-101281428D01*
X150956428Y-101210000D01*
X151813571Y-100352857D01*
X151813571Y-101281428D01*
X151813571Y-102710000D02*
X151813571Y-101852857D01*
X151813571Y-102281428D02*
X150313571Y-102281428D01*
X150527857Y-102138571D01*
X150670714Y-101995714D01*
X150742142Y-101852857D01*
M02*
